<svg width="64" height="64" viewBox="0 0 64 64" fill="none" xmlns="http://www.w3.org/2000/svg">
<g clip-path="url(#clip0_2_269)">
<path d="M2.28564 57.1428V6.85707C2.28564 5.64464 2.76728 4.4819 3.62458 3.62458C4.4819 2.76728 5.64464 2.28564 6.85707 2.28564H57.1428C58.3551 2.28564 59.5181 2.76728 60.3752 3.62458C61.2324 4.4819 61.7142 5.64464 61.7142 6.85707V57.1428C61.7142 58.3551 61.2324 59.5181 60.3752 60.3752C59.5181 61.2324 58.3551 61.7142 57.1428 61.7142H43.4285V40.0456H46.6742C47.4139 40.0456 48.1229 39.7518 48.6459 39.2289C49.1688 38.7059 49.4628 37.9966 49.4628 37.2571V33.7371C49.4628 33.3709 49.3906 33.0082 49.2507 32.6699C49.1103 32.3316 48.9051 32.0242 48.6459 31.7652C48.3871 31.5063 48.0795 31.3009 47.7412 31.1608C47.4029 31.0206 47.0404 30.9485 46.6742 30.9485H43.6114V26.6514C43.6114 22.8114 45.3485 22.8114 47.0856 22.8114H49.3256C49.6936 22.8265 50.0603 22.7607 50.3999 22.6185C50.7396 22.4763 51.044 22.2612 51.2914 21.9885C51.557 21.7356 51.7672 21.4303 51.909 21.092C52.0507 20.7536 52.1206 20.3896 52.1142 20.0228V16.6399C52.1266 16.2677 52.0653 15.8967 51.9336 15.5481C51.8024 15.1996 51.604 14.8803 51.349 14.6086C51.0943 14.3369 50.7885 14.118 50.4493 13.9645C50.1101 13.8111 49.7435 13.726 49.3714 13.7142H44.1142C42.5803 13.6565 41.0521 13.9325 39.6352 14.5232C38.2183 15.1138 36.9465 16.0049 35.9077 17.135C34.8689 18.2652 34.0877 19.6073 33.6183 21.0688C33.1488 22.5303 33.0022 24.0762 33.1885 25.5999V30.9485H30.2628C29.8928 30.9424 29.5252 31.0101 29.1816 31.1475C28.838 31.2849 28.5251 31.4893 28.2614 31.7489C27.9976 32.0085 27.788 32.3179 27.645 32.6593C27.5021 33.0006 27.4285 33.367 27.4285 33.7371V37.2571C27.4285 37.6271 27.5021 37.9935 27.645 38.3349C27.788 38.6762 27.9976 38.9857 28.2614 39.2452C28.5251 39.5048 28.838 39.7092 29.1816 39.8466C29.5252 39.9841 29.8928 40.0517 30.2628 40.0456H33.1885V61.7142H6.85707C5.64464 61.7142 4.4819 61.2324 3.62458 60.3752C2.76728 59.5181 2.28564 58.3551 2.28564 57.1428Z" stroke="black" stroke-width="5" stroke-linecap="round" stroke-linejoin="round"/>
</g>
<defs>
<clipPath id="clip0_2_269">
<rect width="64" height="64" fill="white"/>
</clipPath>
</defs>
</svg>
