<svg width="74" height="74" viewBox="0 0 74 74" fill="none" xmlns="http://www.w3.org/2000/svg">
<path d="M54.6183 19.2615C53.8883 19.2615 53.2969 18.6699 53.2969 17.9401C53.2969 17.2103 53.8883 16.6187 54.6183 16.6187" stroke="black" stroke-width="5" stroke-linecap="round" stroke-linejoin="round"/>
<path d="M54.6182 19.2615C55.3481 19.2615 55.9396 18.6699 55.9396 17.9401C55.9396 17.2103 55.3481 16.6187 54.6182 16.6187" stroke="black" stroke-width="5" stroke-linecap="round" stroke-linejoin="round"/>
<path d="M4.53662 18.1376C4.53662 10.6264 10.6256 4.53735 18.1368 4.53735H54.4043C61.9153 4.53735 68.0044 10.6264 68.0044 18.1376V54.4049C68.0044 61.9159 61.9153 68.005 54.4043 68.005H18.1368C10.6256 68.005 4.53662 61.9159 4.53662 54.4049V18.1376Z" stroke="black" stroke-width="5" stroke-linecap="round" stroke-linejoin="round"/>
<path d="M36.2706 49.7491C43.7146 49.7491 49.7491 43.7146 49.7491 36.2706C49.7491 28.8266 43.7146 22.792 36.2706 22.792C28.8266 22.792 22.792 28.8266 22.792 36.2706C22.792 43.7146 28.8266 49.7491 36.2706 49.7491Z" stroke="black" stroke-width="5" stroke-linecap="round" stroke-linejoin="round"/>
</svg>
