<svg width="77" height="77" viewBox="0 0 77 77" fill="none" xmlns="http://www.w3.org/2000/svg">
<path d="M22.0003 51.7C18.0729 54.7848 13.5652 57.0481 8.74526 58.3549C8.21435 58.5479 7.75565 58.8994 7.43153 59.3614C7.10736 59.8239 6.93345 60.375 6.93345 60.9399C6.93345 61.5047 7.10736 62.0558 7.43153 62.5184C7.75565 62.9809 8.21435 63.3324 8.74526 63.5249C46.8053 79.1449 71.0052 54.9999 67.3202 28.215L73.4802 15.455H66.3302C57.4202 4.51 33.7703 5.06 37.6753 28.38C37.6753 28.38 25.0253 30.635 8.85526 14.74C8.48121 14.3707 8.00914 14.1163 7.495 14.0071C6.98086 13.8978 6.44621 13.9381 5.95429 14.1233C5.46236 14.3085 5.03382 14.6308 4.71941 15.052C4.405 15.4732 4.21789 15.9757 4.18025 16.5C2.47047 23.5282 3.32612 30.9358 6.59311 37.3892C9.86011 43.8425 15.3238 48.9174 22.0003 51.7Z" stroke="black" stroke-width="5" stroke-linecap="round" stroke-linejoin="round"/>
</svg>
