<svg width="286" height="220" viewBox="0 0 286 220" fill="none" xmlns="http://www.w3.org/2000/svg">
<ellipse cx="143" cy="110" rx="143" ry="110" fill="#FAF6DB" fill-opacity="0.8"/>
<path d="M80.1299 130C79.8299 130 79.6465 129.85 79.5799 129.55L72.2799 95.55V95.45C72.2799 95.15 72.4299 95 72.7299 95H74.5799C74.9132 95 75.0965 95.15 75.1299 95.45L81.0299 124.85C81.0632 124.95 81.0966 125 81.1299 125C81.1632 125 81.1965 124.95 81.2299 124.85L87.0299 95.45C87.0965 95.15 87.2799 95 87.5799 95H89.3299C89.6966 95 89.8466 95.1833 89.7799 95.55L82.5299 129.55C82.4966 129.85 82.3132 130 81.9799 130H80.1299ZM100.11 130.4C97.8766 130.4 96.0766 129.717 94.71 128.35C93.3766 126.95 92.71 125.133 92.71 122.9V111.9C92.71 109.7 93.3933 107.9 94.76 106.5C96.1266 105.1 97.91 104.4 100.11 104.4C102.377 104.4 104.193 105.1 105.56 106.5C106.927 107.867 107.61 109.667 107.61 111.9V122.9C107.61 125.133 106.927 126.95 105.56 128.35C104.193 129.717 102.377 130.4 100.11 130.4ZM100.11 128.05C101.543 128.05 102.71 127.567 103.61 126.6C104.51 125.6 104.96 124.333 104.96 122.8V112.05C104.96 110.483 104.51 109.217 103.61 108.25C102.71 107.25 101.543 106.75 100.11 106.75C98.71 106.75 97.56 107.25 96.66 108.25C95.7933 109.217 95.36 110.483 95.36 112.05V122.8C95.36 124.333 95.7933 125.6 96.66 126.6C97.56 127.567 98.71 128.05 100.11 128.05ZM121.421 104.6C122.255 104.6 122.971 104.767 123.571 105.1C123.805 105.233 123.888 105.45 123.821 105.75L123.421 107.45C123.321 107.75 123.105 107.833 122.771 107.7C122.238 107.5 121.588 107.417 120.821 107.45C119.488 107.483 118.405 108.15 117.571 109.45C116.738 110.75 116.321 112.35 116.321 114.25V129.5C116.321 129.833 116.155 130 115.821 130H114.171C113.838 130 113.671 129.833 113.671 129.5V105.3C113.671 104.967 113.838 104.8 114.171 104.8H115.821C116.155 104.8 116.321 104.967 116.321 105.3V108.4C116.321 108.5 116.355 108.55 116.421 108.55C116.488 108.55 116.538 108.5 116.571 108.4C117.038 107.2 117.671 106.267 118.471 105.6C119.305 104.933 120.288 104.6 121.421 104.6ZM141.984 117.85C141.984 118.183 141.817 118.35 141.484 118.35H129.984C129.85 118.35 129.784 118.417 129.784 118.55V122.8C129.784 124.333 130.217 125.6 131.084 126.6C131.984 127.567 133.134 128.05 134.534 128.05C135.7 128.05 136.7 127.7 137.534 127C138.367 126.3 138.917 125.383 139.184 124.25C139.284 123.95 139.467 123.8 139.734 123.8L141.334 123.9C141.467 123.9 141.584 123.933 141.684 124C141.784 124.067 141.817 124.167 141.784 124.3V124.5C141.45 126.333 140.65 127.783 139.384 128.85C138.117 129.883 136.5 130.4 134.534 130.4C132.334 130.4 130.55 129.717 129.184 128.35C127.817 126.95 127.134 125.15 127.134 122.95V111.9C127.134 109.7 127.817 107.9 129.184 106.5C130.55 105.1 132.334 104.4 134.534 104.4C136.767 104.4 138.567 105.1 139.934 106.5C141.3 107.9 141.984 109.7 141.984 111.9V117.85ZM134.534 106.75C133.134 106.75 131.984 107.25 131.084 108.25C130.217 109.217 129.784 110.483 129.784 112.05V115.85C129.784 115.983 129.85 116.05 129.984 116.05H139.134C139.267 116.05 139.334 115.983 139.334 115.85V112.05C139.334 110.483 138.884 109.217 137.984 108.25C137.117 107.25 135.967 106.75 134.534 106.75ZM153.806 130.25C151.639 130.25 149.889 129.667 148.556 128.5C147.256 127.3 146.606 125.767 146.606 123.9V123.6C146.606 123.267 146.772 123.1 147.106 123.1H148.656C148.989 123.1 149.156 123.267 149.156 123.6V123.9C149.156 125.1 149.589 126.1 150.456 126.9C151.322 127.7 152.439 128.1 153.806 128.1C155.139 128.1 156.206 127.7 157.006 126.9C157.839 126.067 158.256 125 158.256 123.7C158.256 122.733 158.022 121.933 157.556 121.3C157.089 120.667 156.506 120.167 155.806 119.8C155.106 119.4 154.156 118.95 152.956 118.45C151.656 117.917 150.589 117.4 149.756 116.9C148.922 116.367 148.206 115.65 147.606 114.75C147.039 113.817 146.756 112.65 146.756 111.25C146.756 109.217 147.389 107.6 148.656 106.4C149.922 105.2 151.606 104.6 153.706 104.6C155.839 104.6 157.539 105.217 158.806 106.45C160.072 107.683 160.706 109.283 160.706 111.25V111.4C160.706 111.733 160.539 111.9 160.206 111.9H158.706C158.372 111.9 158.206 111.733 158.206 111.4V111.15C158.206 109.917 157.789 108.883 156.956 108.05C156.122 107.217 155.039 106.8 153.706 106.8C152.372 106.8 151.306 107.217 150.506 108.05C149.706 108.85 149.306 109.9 149.306 111.2C149.306 112.1 149.522 112.85 149.956 113.45C150.389 114.05 150.922 114.533 151.556 114.9C152.222 115.267 153.139 115.717 154.306 116.25C155.672 116.817 156.789 117.367 157.656 117.9C158.556 118.4 159.322 119.117 159.956 120.05C160.589 120.983 160.906 122.167 160.906 123.6C160.906 125.6 160.256 127.217 158.956 128.45C157.656 129.65 155.939 130.25 153.806 130.25ZM192.028 94.15C192.262 94.2833 192.328 94.5167 192.228 94.85L190.878 98.1C190.845 98.1667 190.862 98.2667 190.928 98.4C191.728 99.6333 192.128 101.183 192.128 103.05V122C192.128 124.5 191.362 126.533 189.828 128.1C188.295 129.633 186.295 130.4 183.828 130.4C181.728 130.4 179.978 129.833 178.578 128.7C178.445 128.6 178.345 128.617 178.278 128.75L177.278 131.2C177.178 131.533 176.962 131.617 176.628 131.45L175.628 130.95C175.362 130.783 175.278 130.567 175.378 130.3L176.778 126.9C176.845 126.8 176.828 126.7 176.728 126.6C175.962 125.333 175.578 123.8 175.578 122V103.05C175.578 100.517 176.328 98.4833 177.828 96.95C179.362 95.3833 181.362 94.6 183.828 94.6C185.928 94.6 187.695 95.1833 189.128 96.35C189.262 96.45 189.362 96.4333 189.428 96.3L190.428 93.85C190.495 93.6833 190.578 93.5833 190.678 93.55C190.812 93.4833 190.945 93.5 191.078 93.6L192.028 94.15ZM178.228 122.1C178.228 122.367 178.245 122.567 178.278 122.7C178.278 122.8 178.312 122.85 178.378 122.85C178.445 122.85 178.495 122.817 178.528 122.75L188.228 99.2C188.262 99.1 188.245 99.0167 188.178 98.95C187.678 98.3167 187.045 97.8333 186.278 97.5C185.545 97.1333 184.728 96.95 183.828 96.95C182.162 96.95 180.812 97.5167 179.778 98.65C178.745 99.75 178.228 101.183 178.228 102.95V122.1ZM189.478 102.95C189.478 102.65 189.462 102.433 189.428 102.3C189.428 102.2 189.395 102.15 189.328 102.15C189.262 102.15 189.212 102.183 189.178 102.25L179.478 125.8C179.445 125.9 179.462 125.983 179.528 126.05C180.595 127.383 182.028 128.05 183.828 128.05C185.495 128.05 186.845 127.5 187.878 126.4C188.945 125.267 189.478 123.833 189.478 122.1V102.95ZM201.685 130C201.352 130 201.185 129.833 201.185 129.5V95.5C201.185 95.1667 201.352 95 201.685 95H203.335C203.669 95 203.835 95.1667 203.835 95.5V127.45C203.835 127.583 203.902 127.65 204.035 127.65H215.735C216.069 127.65 216.235 127.817 216.235 128.15V129.5C216.235 129.833 216.069 130 215.735 130H201.685Z" fill="black"/>
</svg>
